<svg xmlns="http://www.w3.org/2000/svg" xmlns:xlink="http://www.w3.org/1999/xlink" width="375" zoomAndPan="magnify" viewBox="0 0 281.25 236.249991" height="315" preserveAspectRatio="xMidYMid meet" version="1.0"><defs><g/><clipPath id="790c972c6a"><path d="M 68.714844 0 L 210.890625 0 L 210.890625 152.445312 L 68.714844 152.445312 Z M 68.714844 0 " clip-rule="nonzero"/></clipPath><clipPath id="a77009b6a3"><path d="M 111.007812 21.273438 L 168.667969 21.273438 L 168.667969 59.976562 L 111.007812 59.976562 Z M 111.007812 21.273438 " clip-rule="nonzero"/></clipPath><clipPath id="807b42b66f"><path d="M 83.871094 48.503906 L 196.03125 48.503906 L 196.03125 119 L 83.871094 119 Z M 83.871094 48.503906 " clip-rule="nonzero"/></clipPath></defs><path fill="#ffffff" d="M 134.257812 3.78125 L 78.117188 30.355469 C 73.558594 32.5625 70.636719 37.195312 70.636719 42.324219 L 70.710938 110.574219 C 70.710938 115.632812 73.628906 120.332031 78.261719 122.472656 L 134.328125 149.117188 C 137.890625 150.824219 142.09375 150.824219 145.65625 149.117188 L 201.796875 122.472656 C 206.425781 120.261719 209.347656 115.632812 209.347656 110.503906 L 209.347656 42.253906 C 209.347656 37.121094 206.425781 32.492188 201.796875 30.355469 L 145.585938 3.78125 C 142.023438 2.070312 137.890625 2.070312 134.257812 3.78125 Z M 134.257812 3.78125 " fill-opacity="1" fill-rule="nonzero"/><g clip-path="url(#790c972c6a)"><path fill="#ffffff" d="M 139.957031 152.320312 C 137.75 152.320312 135.539062 151.824219 133.472656 150.824219 L 77.40625 124.179688 C 72.207031 121.6875 68.785156 116.34375 68.785156 110.574219 L 68.714844 42.324219 C 68.714844 36.480469 72.0625 31.136719 77.335938 28.644531 L 133.472656 2.070312 C 137.605469 0.148438 142.308594 0.148438 146.441406 2.070312 L 202.578125 28.714844 C 207.851562 31.210938 211.199219 36.550781 211.199219 42.324219 L 211.199219 110.574219 C 211.199219 116.34375 207.78125 121.757812 202.578125 124.253906 L 146.441406 150.898438 C 144.375 151.824219 142.164062 152.320312 139.957031 152.320312 Z M 135.113281 5.492188 L 78.972656 32.0625 C 75.054688 33.917969 72.492188 37.976562 72.492188 42.324219 L 72.5625 110.574219 C 72.5625 114.917969 75.125 118.910156 79.046875 120.761719 L 135.113281 147.40625 C 138.175781 148.902344 141.738281 148.902344 144.800781 147.40625 L 200.941406 120.761719 C 204.859375 118.910156 207.425781 114.917969 207.425781 110.574219 L 207.425781 42.324219 C 207.425781 37.976562 204.859375 33.988281 200.941406 32.136719 L 144.800781 5.492188 C 141.738281 3.996094 138.175781 3.996094 135.113281 5.492188 Z M 135.113281 5.492188 " fill-opacity="1" fill-rule="nonzero"/></g><g clip-path="url(#a77009b6a3)"><path fill="#000000" d="M 166.589844 33.5 C 166.589844 33.652344 166.589844 33.824219 166.546875 33.976562 L 162.980469 48.234375 C 162.808594 48.949219 162.160156 49.46875 161.425781 49.46875 L 140.035156 49.574219 L 118.625 49.574219 C 117.890625 49.574219 117.242188 49.078125 117.046875 48.34375 L 113.484375 34.042969 C 113.441406 33.867188 113.441406 33.695312 113.441406 33.542969 C 112.058594 33.113281 111.0625 31.816406 111.0625 30.304688 C 111.0625 28.421875 112.597656 26.890625 114.476562 26.890625 C 116.355469 26.890625 117.890625 28.421875 117.890625 30.304688 C 117.890625 31.363281 117.414062 32.3125 116.636719 32.9375 L 121.109375 37.433594 C 122.210938 38.554688 123.789062 39.203125 125.386719 39.203125 C 127.289062 39.203125 129.082031 38.296875 130.226562 36.804688 L 137.550781 27.085938 C 136.925781 26.480469 136.558594 25.613281 136.558594 24.6875 C 136.558594 22.804688 138.089844 21.273438 139.972656 21.273438 C 141.851562 21.273438 143.382812 22.804688 143.382812 24.6875 C 143.382812 25.59375 143.015625 26.414062 142.433594 27.042969 L 149.714844 36.785156 C 150.859375 38.296875 152.652344 39.203125 154.554688 39.203125 C 156.175781 39.203125 157.6875 38.578125 158.832031 37.433594 L 163.324219 32.9375 C 162.546875 32.3125 162.050781 31.363281 162.050781 30.28125 C 162.050781 28.402344 163.585938 26.867188 165.464844 26.867188 C 167.34375 26.867188 168.878906 28.402344 168.878906 30.28125 C 168.855469 31.773438 167.90625 33.027344 166.589844 33.5 Z M 162.632812 54.652344 C 162.632812 53.765625 161.898438 53.03125 161.015625 53.03125 L 119.101562 53.03125 C 118.214844 53.03125 117.480469 53.765625 117.480469 54.652344 L 117.480469 58.539062 C 117.480469 59.425781 118.214844 60.160156 119.101562 60.160156 L 161.015625 60.160156 C 161.898438 60.160156 162.632812 59.425781 162.632812 58.539062 Z M 162.632812 54.652344 " fill-opacity="1" fill-rule="nonzero"/></g><g clip-path="url(#807b42b66f)"><path fill="#000000" d="M 106.304688 48.503906 L 108.492188 48.503906 L 110.273438 48.683594 C 110.296875 48.6875 110.320312 48.691406 110.339844 48.703125 C 110.449219 48.753906 110.640625 48.800781 110.921875 48.839844 C 111.96875 48.988281 113.050781 49.402344 114.175781 50.078125 C 115.878906 51.109375 116.296875 53.003906 116.105469 54.890625 C 116.082031 55.109375 116.101562 55.234375 116.292969 55.371094 C 117.484375 56.222656 118.582031 57.144531 119.589844 58.136719 C 119.652344 58.199219 119.726562 58.226562 119.8125 58.226562 L 159.835938 58.226562 C 159.972656 58.226562 160.089844 58.179688 160.183594 58.082031 C 161.136719 57.117188 162.167969 56.242188 163.28125 55.464844 C 163.386719 55.390625 163.4375 55.289062 163.4375 55.160156 C 163.433594 54.234375 163.339844 53.128906 163.609375 52.304688 C 164.59375 49.28125 168.894531 48.667969 171.59375 48.503906 L 173.324219 48.503906 C 176.089844 48.746094 179.746094 49.175781 180.921875 52.160156 C 181.265625 53.03125 181.167969 54.277344 181.222656 55.269531 C 181.226562 55.324219 181.25 55.367188 181.296875 55.402344 C 184.5 57.753906 186.765625 60.492188 188.007812 64.261719 C 188.230469 64.929688 188.484375 66 188.769531 67.472656 C 191.007812 78.949219 193.261719 90.421875 195.535156 101.894531 C 195.742188 102.949219 195.902344 104.015625 196.019531 105.089844 L 196.019531 106.28125 C 195.613281 112.199219 191.699219 117.195312 185.8125 118.476562 C 185.050781 118.640625 184.238281 118.675781 183.4375 118.714844 L 183.066406 118.714844 C 179.34375 118.453125 175.925781 116.234375 174.082031 113.003906 C 170.652344 106.996094 167.273438 100.957031 163.945312 94.890625 C 163.914062 94.839844 163.878906 94.835938 163.835938 94.875 C 160.863281 97.636719 157.449219 98.945312 153.429688 98.136719 C 150.261719 97.5 147.742188 95.367188 146.117188 92.65625 C 146.0625 92.558594 145.976562 92.511719 145.863281 92.511719 L 133.460938 92.511719 C 133.375 92.511719 133.308594 92.546875 133.261719 92.621094 C 130.945312 96.316406 127.546875 98.546875 123.148438 98.339844 C 120.292969 98.210938 117.71875 97.003906 115.800781 94.894531 C 115.769531 94.859375 115.730469 94.84375 115.683594 94.847656 C 115.636719 94.855469 115.601562 94.878906 115.578125 94.917969 C 112.203125 100.957031 108.84375 106.984375 105.496094 113.011719 C 102.21875 118.90625 95.042969 120.382812 89.535156 116.546875 C 86.269531 114.273438 84.386719 111.148438 83.882812 107.171875 L 83.882812 104.65625 C 83.964844 103.8125 84.0625 103.113281 84.167969 102.5625 C 86.410156 91.035156 88.636719 79.5 90.847656 67.964844 C 91.148438 66.394531 91.382812 65.320312 91.550781 64.746094 C 92.652344 60.96875 94.835938 57.929688 98.101562 55.628906 C 98.21875 55.550781 98.273438 55.441406 98.269531 55.300781 C 98.261719 54.679688 98.285156 54.046875 98.335938 53.402344 C 98.648438 49.429688 103.1875 48.78125 106.304688 48.503906 Z M 172.796875 65.179688 C 173.257812 65.121094 173.691406 64.96875 174.097656 64.734375 C 174.5 64.496094 174.84375 64.191406 175.125 63.8125 C 175.410156 63.4375 175.609375 63.019531 175.726562 62.5625 C 175.847656 62.105469 175.875 61.640625 175.8125 61.167969 C 175.75 60.699219 175.601562 60.257812 175.363281 59.847656 C 175.128906 59.433594 174.824219 59.085938 174.453125 58.796875 C 174.082031 58.507812 173.671875 58.300781 173.21875 58.175781 C 172.765625 58.054688 172.308594 58.023438 171.847656 58.085938 C 171.382812 58.144531 170.949219 58.296875 170.546875 58.53125 C 170.144531 58.769531 169.800781 59.074219 169.519531 59.453125 C 169.234375 59.828125 169.035156 60.246094 168.914062 60.703125 C 168.796875 61.160156 168.769531 61.625 168.832031 62.097656 C 168.894531 62.566406 169.042969 63.007812 169.277344 63.417969 C 169.515625 63.832031 169.816406 64.179688 170.191406 64.46875 C 170.5625 64.757812 170.972656 64.964844 171.425781 65.089844 C 171.875 65.210938 172.335938 65.242188 172.796875 65.179688 Z M 99.453125 67 C 99.328125 67.109375 99.261719 67.242188 99.261719 67.410156 L 99.261719 71.335938 C 99.261719 71.398438 99.28125 71.457031 99.3125 71.511719 C 99.636719 72.03125 100.019531 72.214844 100.664062 72.21875 C 102.078125 72.230469 103.5 72.238281 104.925781 72.242188 C 104.984375 72.242188 105.011719 72.269531 105.011719 72.328125 L 105.066406 77.375 C 105.066406 77.40625 105.078125 77.4375 105.097656 77.46875 C 105.414062 77.929688 105.765625 78.121094 106.367188 78.125 C 107.152344 78.125 107.933594 78.140625 108.714844 78.160156 C 109.667969 78.1875 110.546875 78 110.527344 76.898438 C 110.496094 75.367188 110.496094 73.839844 110.519531 72.316406 C 110.519531 72.261719 110.550781 72.230469 110.605469 72.230469 C 111.984375 72.195312 113.363281 72.199219 114.746094 72.242188 C 115.066406 72.253906 115.761719 72.066406 115.957031 71.816406 C 116.375 71.273438 116.183594 69.867188 116.179688 69.300781 C 116.179688 68.234375 116.613281 66.660156 114.929688 66.644531 C 113.460938 66.628906 112.027344 66.628906 110.625 66.636719 C 110.503906 66.636719 110.4375 66.578125 110.433594 66.453125 C 110.375 64.886719 110.347656 63.324219 110.34375 61.769531 C 110.339844 60.988281 109.808594 60.5 109.050781 60.507812 C 108.0625 60.519531 107.078125 60.535156 106.097656 60.550781 C 105.433594 60.5625 104.910156 60.902344 104.875 61.625 C 104.796875 63.117188 104.910156 64.402344 104.875 66.539062 C 104.871094 66.597656 104.84375 66.628906 104.785156 66.628906 C 103.40625 66.640625 102.039062 66.640625 100.683594 66.632812 C 100.183594 66.628906 99.804688 66.710938 99.453125 67 Z M 163.605469 73.691406 C 164.074219 73.683594 164.523438 73.585938 164.949219 73.398438 C 165.378906 73.210938 165.753906 72.945312 166.082031 72.605469 C 166.40625 72.265625 166.652344 71.875 166.824219 71.4375 C 166.996094 70.996094 167.078125 70.539062 167.070312 70.066406 C 167.0625 69.59375 166.96875 69.140625 166.78125 68.703125 C 166.597656 68.269531 166.335938 67.886719 166 67.558594 C 165.664062 67.230469 165.28125 66.976562 164.847656 66.800781 C 164.410156 66.628906 163.960938 66.542969 163.496094 66.550781 C 163.027344 66.558594 162.578125 66.65625 162.152344 66.84375 C 161.722656 67.03125 161.347656 67.296875 161.019531 67.636719 C 160.695312 67.976562 160.449219 68.367188 160.277344 68.804688 C 160.105469 69.246094 160.023438 69.703125 160.03125 70.175781 C 160.039062 70.648438 160.132812 71.105469 160.320312 71.539062 C 160.503906 71.972656 160.765625 72.355469 161.101562 72.683594 C 161.4375 73.015625 161.820312 73.265625 162.253906 73.441406 C 162.691406 73.613281 163.140625 73.699219 163.605469 73.691406 Z M 181.324219 73.710938 C 181.792969 73.703125 182.242188 73.609375 182.671875 73.425781 C 183.101562 73.238281 183.480469 72.976562 183.808594 72.636719 C 184.136719 72.300781 184.390625 71.910156 184.5625 71.46875 C 184.738281 71.027344 184.824219 70.570312 184.820312 70.09375 C 184.816406 69.621094 184.722656 69.164062 184.539062 68.726562 C 184.355469 68.289062 184.097656 67.902344 183.765625 67.570312 C 183.429688 67.238281 183.046875 66.980469 182.613281 66.804688 C 182.179688 66.625 181.730469 66.539062 181.261719 66.542969 C 180.792969 66.546875 180.34375 66.640625 179.914062 66.828125 C 179.484375 67.011719 179.105469 67.273438 178.777344 67.613281 C 178.449219 67.953125 178.195312 68.34375 178.023438 68.785156 C 177.847656 69.222656 177.761719 69.679688 177.765625 70.15625 C 177.769531 70.632812 177.863281 71.089844 178.046875 71.527344 C 178.226562 71.964844 178.488281 72.347656 178.820312 72.679688 C 179.152344 73.015625 179.539062 73.269531 179.972656 73.449219 C 180.40625 73.625 180.855469 73.714844 181.324219 73.710938 Z M 152.640625 70.835938 C 152.640625 70.648438 152.601562 70.464844 152.53125 70.292969 C 152.457031 70.117188 152.351562 69.960938 152.21875 69.828125 C 152.085938 69.695312 151.929688 69.59375 151.753906 69.519531 C 151.578125 69.449219 151.394531 69.414062 151.207031 69.414062 L 146.808594 69.421875 C 146.621094 69.421875 146.4375 69.457031 146.261719 69.53125 C 146.085938 69.601562 145.933594 69.707031 145.800781 69.839844 C 145.664062 69.972656 145.5625 70.128906 145.488281 70.304688 C 145.417969 70.476562 145.382812 70.660156 145.382812 70.847656 L 145.382812 70.976562 C 145.382812 71.167969 145.417969 71.347656 145.492188 71.523438 C 145.566406 71.699219 145.667969 71.851562 145.804688 71.984375 C 145.9375 72.117188 146.09375 72.222656 146.269531 72.292969 C 146.441406 72.367188 146.625 72.402344 146.816406 72.402344 L 151.210938 72.394531 C 151.402344 72.394531 151.582031 72.355469 151.757812 72.285156 C 151.933594 72.210938 152.089844 72.109375 152.222656 71.972656 C 152.355469 71.839844 152.460938 71.6875 152.53125 71.511719 C 152.605469 71.335938 152.640625 71.15625 152.640625 70.964844 Z M 128.292969 69.472656 C 126.808594 69.5 126.507812 71.433594 127.632812 72.144531 C 127.894531 72.308594 128.324219 72.394531 128.921875 72.398438 C 130.222656 72.40625 131.527344 72.394531 132.828125 72.359375 C 134.761719 72.3125 134.574219 69.429688 132.796875 69.429688 C 131.292969 69.433594 129.792969 69.445312 128.292969 69.472656 Z M 172.945312 75.070312 C 170.765625 74.628906 168.539062 76.582031 168.789062 78.859375 C 169.011719 80.867188 170.601562 82.390625 172.726562 82.175781 C 176.703125 81.78125 177 75.886719 172.945312 75.070312 Z M 124.605469 78.113281 C 120.722656 77.425781 117.039062 80.59375 116.796875 84.425781 C 116.566406 88.160156 119.242188 91.414062 123.039062 91.738281 C 127.808594 92.144531 131.507812 87.523438 130.132812 82.941406 C 129.367188 80.382812 127.21875 78.574219 124.605469 78.113281 Z M 148.925781 84.105469 C 148.246094 90.222656 155.441406 94.222656 160.199219 90.066406 C 164.671875 86.152344 162.359375 78.765625 156.457031 78.078125 C 152.753906 77.644531 149.339844 80.378906 148.925781 84.105469 Z M 148.925781 84.105469 " fill-opacity="1" fill-rule="nonzero"/></g><path stroke-linecap="butt" transform="matrix(0.789869, 0, 0, 0.789869, 102.573352, 52.721115)" fill="none" stroke-linejoin="miter" d="M 0.00109727 3.498378 L 84.498911 3.498378 " stroke="#000000" stroke-width="7" stroke-opacity="1" stroke-miterlimit="4"/><g fill="#ffffff" fill-opacity="1"><g transform="translate(68.979298, 190.324803)"><g><path d="M 29.578125 -7.015625 L 29.578125 0 L 1.5625 0 L 1.5625 -5.546875 L 17.34375 -24.265625 L 1.96875 -24.265625 L 1.96875 -31.28125 L 28.90625 -31.28125 L 28.90625 -25.734375 L 13.140625 -7.015625 Z M 29.578125 -7.015625 "/></g></g></g><g fill="#ffffff" fill-opacity="1"><g transform="translate(100.212433, 190.324803)"><g><path d="M 18.90625 0.625 C 15.59375 0.625 12.617188 -0.0703125 9.984375 -1.46875 C 7.347656 -2.875 5.273438 -4.8125 3.765625 -7.28125 C 2.265625 -9.757812 1.515625 -12.546875 1.515625 -15.640625 C 1.515625 -18.734375 2.265625 -21.515625 3.765625 -23.984375 C 5.273438 -26.460938 7.347656 -28.398438 9.984375 -29.796875 C 12.617188 -31.203125 15.59375 -31.90625 18.90625 -31.90625 C 22.207031 -31.90625 25.175781 -31.203125 27.8125 -29.796875 C 30.445312 -28.398438 32.515625 -26.460938 34.015625 -23.984375 C 35.523438 -21.515625 36.28125 -18.734375 36.28125 -15.640625 C 36.28125 -12.546875 35.523438 -9.757812 34.015625 -7.28125 C 32.515625 -4.8125 30.445312 -2.875 27.8125 -1.46875 C 25.175781 -0.0703125 22.207031 0.625 18.90625 0.625 Z M 18.90625 -6.703125 C 20.476562 -6.703125 21.90625 -7.070312 23.1875 -7.8125 C 24.46875 -8.5625 25.476562 -9.613281 26.21875 -10.96875 C 26.96875 -12.320312 27.34375 -13.878906 27.34375 -15.640625 C 27.34375 -17.398438 26.96875 -18.957031 26.21875 -20.3125 C 25.476562 -21.664062 24.46875 -22.710938 23.1875 -23.453125 C 21.90625 -24.203125 20.476562 -24.578125 18.90625 -24.578125 C 17.320312 -24.578125 15.890625 -24.203125 14.609375 -23.453125 C 13.328125 -22.710938 12.3125 -21.664062 11.5625 -20.3125 C 10.820312 -18.957031 10.453125 -17.398438 10.453125 -15.640625 C 10.453125 -13.878906 10.820312 -12.320312 11.5625 -10.96875 C 12.3125 -9.613281 13.328125 -8.5625 14.609375 -7.8125 C 15.890625 -7.070312 17.320312 -6.703125 18.90625 -6.703125 Z M 18.90625 -6.703125 "/></g></g></g><g fill="#ffffff" fill-opacity="1"><g transform="translate(138.907515, 190.324803)"><g><path d="M 32.890625 -31.28125 L 32.890625 0 L 25.609375 0 L 11.796875 -16.671875 L 11.796875 0 L 3.125 0 L 3.125 -31.28125 L 10.40625 -31.28125 L 24.21875 -14.609375 L 24.21875 -31.28125 Z M 32.890625 -31.28125 "/></g></g></g><g fill="#ffffff" fill-opacity="1"><g transform="translate(175.815306, 190.324803)"><g><path d="M 24.09375 -6.078125 L 10.859375 -6.078125 L 8.40625 0 L -0.625 0 L 13.1875 -31.28125 L 21.890625 -31.28125 L 35.75 0 L 26.546875 0 Z M 21.5 -12.609375 L 17.46875 -22.609375 L 13.453125 -12.609375 Z M 21.5 -12.609375 "/></g></g></g><g fill="#ffffff" fill-opacity="1"><g transform="translate(84.180838, 219.031441)"><g><path d="M 15.03125 -10.171875 L 19.90625 -10.171875 L 19.90625 -2.09375 C 18.789062 -1.289062 17.503906 -0.675781 16.046875 -0.25 C 14.597656 0.175781 13.148438 0.390625 11.703125 0.390625 C 9.660156 0.390625 7.820312 -0.0390625 6.1875 -0.90625 C 4.550781 -1.769531 3.269531 -2.972656 2.34375 -4.515625 C 1.414062 -6.054688 0.953125 -7.800781 0.953125 -9.75 C 0.953125 -11.707031 1.414062 -13.457031 2.34375 -15 C 3.269531 -16.539062 4.5625 -17.742188 6.21875 -18.609375 C 7.875 -19.472656 9.738281 -19.90625 11.8125 -19.90625 C 13.632812 -19.90625 15.269531 -19.597656 16.71875 -18.984375 C 18.175781 -18.367188 19.382812 -17.484375 20.34375 -16.328125 L 16.84375 -13.15625 C 15.519531 -14.601562 13.9375 -15.328125 12.09375 -15.328125 C 10.425781 -15.328125 9.078125 -14.820312 8.046875 -13.8125 C 7.023438 -12.800781 6.515625 -11.445312 6.515625 -9.75 C 6.515625 -8.675781 6.75 -7.71875 7.21875 -6.875 C 7.6875 -6.03125 8.335938 -5.367188 9.171875 -4.890625 C 10.003906 -4.421875 10.960938 -4.1875 12.046875 -4.1875 C 13.097656 -4.1875 14.09375 -4.398438 15.03125 -4.828125 Z M 15.03125 -10.171875 "/></g></g></g><g fill="#ffffff" fill-opacity="1"><g transform="translate(106.200339, 219.031441)"><g><path d="M 15.03125 -3.796875 L 6.78125 -3.796875 L 5.234375 0 L -0.390625 0 L 8.21875 -19.515625 L 13.65625 -19.515625 L 22.296875 0 L 16.5625 0 Z M 13.40625 -7.859375 L 10.90625 -14.109375 L 8.390625 -7.859375 Z M 13.40625 -7.859375 "/></g></g></g><g fill="#ffffff" fill-opacity="1"><g transform="translate(128.665797, 219.031441)"><g><path d="M 19.5625 0 L 19.515625 -10.34375 L 14.5 -1.921875 L 12.046875 -1.921875 L 7.046875 -10.0625 L 7.046875 0 L 1.953125 0 L 1.953125 -19.515625 L 6.5 -19.515625 L 13.359375 -8.25 L 20.046875 -19.515625 L 24.578125 -19.515625 L 24.640625 0 Z M 19.5625 0 "/></g></g></g><g fill="#ffffff" fill-opacity="1"><g transform="translate(155.813819, 219.031441)"><g><path d="M 17.609375 -4.265625 L 17.609375 0 L 1.953125 0 L 1.953125 -19.515625 L 17.25 -19.515625 L 17.25 -15.25 L 7.421875 -15.25 L 7.421875 -11.953125 L 16.078125 -11.953125 L 16.078125 -7.828125 L 7.421875 -7.828125 L 7.421875 -4.265625 Z M 17.609375 -4.265625 "/></g></g></g><g fill="#ffffff" fill-opacity="1"><g transform="translate(175.101822, 219.031441)"><g><path d="M 10.484375 -5.1875 L 7.46875 -5.1875 L 7.46875 0 L 1.953125 0 L 1.953125 -19.515625 L 10.875 -19.515625 C 12.632812 -19.515625 14.164062 -19.21875 15.46875 -18.625 C 16.769531 -18.039062 17.773438 -17.207031 18.484375 -16.125 C 19.191406 -15.039062 19.546875 -13.765625 19.546875 -12.296875 C 19.546875 -10.878906 19.210938 -9.644531 18.546875 -8.59375 C 17.890625 -7.550781 16.945312 -6.726562 15.71875 -6.125 L 19.9375 0 L 14.015625 0 Z M 13.96875 -12.296875 C 13.96875 -13.203125 13.675781 -13.90625 13.09375 -14.40625 C 12.519531 -14.90625 11.664062 -15.15625 10.53125 -15.15625 L 7.46875 -15.15625 L 7.46875 -9.453125 L 10.53125 -9.453125 C 11.664062 -9.453125 12.519531 -9.695312 13.09375 -10.1875 C 13.675781 -10.675781 13.96875 -11.378906 13.96875 -12.296875 Z M 13.96875 -12.296875 "/></g></g></g></svg>